# xmcd
#
# Track frame offsets:
#	150
#	10942
#	25627
#	36910
#	53720
#	67010
#	83182
#	95452
#	110102
#	125679
#	140220
#	157715
#	168807
#
# Disc length: 2412 seconds
#
# Revision: 1
# Processed by: cddbd v1.5.2PL0 Copyright (c) Steve Scherf et al.
# Submitted via: audiograbber 1.83.01
#
DISCID=a8096a0d
DTITLE=Hillbillies - The old man
DYEAR=1995
DGENRE=Country
TTITLE0=This Old Heart
TTITLE1=Dancing The Night Away
TTITLE2=The Old Man
TTITLE3=Love Me
TTITLE4=Just Call Me Lonesome
TTITLE5=My Life´s Work
TTITLE6=Criss Crossed
TTITLE7=Every Little Thing
TTITLE8=Who´s Crying Now
TTITLE9=Every Time You Go Outside
TTITLE10=Seminole Wind
TTITLE11=Big Big Love
TTITLE12=Hard on Love
EXTD=
EXTT0=
EXTT1=
EXTT2=
EXTT3=
EXTT4=
EXTT5=
EXTT6=
EXTT7=
EXTT8=
EXTT9=
EXTT10=
EXTT11=
EXTT12=
PLAYORDER=
